<svg width="179" height="25" viewBox="0 0 179 25" fill="none" xmlns="http://www.w3.org/2000/svg">
<path d="M0.170455 24L-2.78873 23.5068L-3.37093 27H0.170455V24ZM2.89773 7.63636V4.63636H0.356346L-0.0614544 7.14317L2.89773 7.63636ZM8.48011 7.63636L11.4404 8.12298L12.0135 4.63636H8.48011V7.63636ZM7.96875 10.7472L5.00848 10.2605L4.43534 13.7472H7.96875V10.7472ZM8.1392 10.7472V13.7472H10.0049L10.8299 12.0738L8.1392 10.7472ZM10.2805 8.31818L8.6524 5.79843L8.65239 5.79843L10.2805 8.31818ZM16.1932 8.33949L14.2704 10.6423L14.277 10.6478L14.2837 10.6533L16.1932 8.33949ZM17.3011 10.7472L14.3012 10.7684L14.3223 13.7472H17.3011V10.7472ZM17.4716 10.7472V13.7472H19.4297L20.2178 11.9547L17.4716 10.7472ZM19.6342 8.33949L21.1831 10.9087L21.1897 10.9047L21.1964 10.9007L19.6342 8.33949ZM26.5163 8.93608L24.1769 10.8142L24.185 10.8241L26.5163 8.93608ZM27.3153 12.9631L24.3575 12.4617L24.3559 12.4717L27.3153 12.9631ZM25.483 24V27H28.026L28.4424 24.4913L25.483 24ZM19.6023 24L16.6445 23.4982L16.0505 27H19.6023V24ZM21.2216 14.4545L24.1793 14.9563L24.1869 14.9115L24.1932 14.8665L21.2216 14.4545ZM20.9233 12.7713L18.4935 14.5308L18.5008 14.5409L18.5081 14.5509L20.9233 12.7713ZM18.0256 12.7713L20.1284 14.911L20.1287 14.9107L18.0256 12.7713ZM17.2585 14.4545L20.2163 14.9563L20.2239 14.9115L20.2301 14.8664L17.2585 14.4545ZM15.6392 24V27H18.1731L18.5969 24.5018L15.6392 24ZM10.0142 24L7.05646 23.4982L6.46242 27H10.0142V24ZM11.6335 14.4545L14.5913 14.9563L14.5989 14.9115L14.6051 14.8664L11.6335 14.4545ZM11.3352 12.7713L8.9054 14.5308L8.91269 14.5409L8.92006 14.5509L11.3352 12.7713ZM8.88494 12.4304L7.40877 9.81871L7.39641 9.8257L7.38411 9.8328L8.88494 12.4304ZM8.08594 13.2294L5.52738 11.6629L5.52276 11.6705L5.51819 11.6781L8.08594 13.2294ZM7.67045 14.4545L10.6282 14.9563L10.6332 14.9269L10.6376 14.8974L7.67045 14.4545ZM6.05114 24V27H8.58507L9.00888 24.5018L6.05114 24ZM3.12964 24.4932L5.85691 8.12956L-0.0614544 7.14317L-2.78873 23.5068L3.12964 24.4932ZM2.89773 10.6364H8.48011V4.63636H2.89773V10.6364ZM5.51984 7.14974L5.00848 10.2605L10.929 11.2338L11.4404 8.12298L5.51984 7.14974ZM7.96875 13.7472H8.1392V7.74716H7.96875V13.7472ZM10.8299 12.0738C11.1037 11.5185 11.4584 11.1289 11.9087 10.8379L8.65239 5.79843C7.25611 6.70065 6.18322 7.93033 5.44849 9.42049L10.8299 12.0738ZM11.9087 10.8379C12.3267 10.5679 12.7904 10.4233 13.3807 10.4233V4.4233C11.6841 4.4233 10.081 4.87532 8.6524 5.79843L11.9087 10.8379ZM13.3807 10.4233C13.9678 10.4233 14.181 10.5677 14.2704 10.6423L18.1159 6.03666C16.7423 4.88973 15.0805 4.4233 13.3807 4.4233V10.4233ZM14.2837 10.6533C14.3096 10.6747 14.3157 10.684 14.3117 10.6788C14.3071 10.673 14.2997 10.6617 14.2935 10.6483C14.2875 10.6352 14.2882 10.6322 14.2911 10.6462C14.2943 10.6611 14.3007 10.6998 14.3012 10.7684L20.3011 10.7259C20.2881 8.89332 19.5617 7.22966 18.1027 6.02564L14.2837 10.6533ZM17.3011 13.7472H17.4716V7.74716H17.3011V13.7472ZM20.2178 11.9547C20.3915 11.5597 20.6731 11.2162 21.1831 10.9087L18.0854 5.77023C16.5925 6.6702 15.4323 7.93176 14.7254 9.5396L20.2178 11.9547ZM21.1964 10.9007C21.7073 10.5891 22.2744 10.4233 22.9688 10.4233V4.4233C21.2199 4.4233 19.564 4.86831 18.0721 5.7783L21.1964 10.9007ZM22.9688 10.4233C23.8191 10.4233 24.0535 10.6604 24.1769 10.8142L28.8557 7.05798C27.3599 5.19473 25.2292 4.4233 22.9688 4.4233V10.4233ZM24.185 10.8241C24.3036 10.9706 24.545 11.3557 24.3575 12.4617L30.2732 13.4644C30.6539 11.2182 30.3626 8.91864 28.8477 7.04801L24.185 10.8241ZM24.3559 12.4717L22.5235 23.5087L28.4424 24.4913L30.2748 13.4544L24.3559 12.4717ZM25.483 21H19.6023V27H25.483V21ZM22.56 24.5018L24.1793 14.9563L18.2638 13.9528L16.6445 23.4982L22.56 24.5018ZM24.1932 14.8665C24.3528 13.7153 24.2715 12.258 23.3385 10.9917L18.5081 14.5509C18.3489 14.3349 18.2877 14.1324 18.2676 14.0192C18.2501 13.9202 18.2677 13.9147 18.25 14.0426L24.1932 14.8665ZM23.3531 11.0118C22.3736 9.65906 20.9138 9.15341 19.5597 9.15341V15.1534C19.5315 15.1534 19.3592 15.1486 19.1205 15.0404C18.8633 14.9239 18.6441 14.7388 18.4935 14.5308L23.3531 11.0118ZM19.5597 9.15341C18.1932 9.15341 16.9195 9.65181 15.9225 10.6319L20.1287 14.9107C20.0752 14.9633 19.9788 15.0364 19.8442 15.0906C19.7111 15.1442 19.6052 15.1534 19.5597 15.1534V9.15341ZM15.9228 10.6316C14.9295 11.6078 14.4538 12.8387 14.2869 14.0426L20.2301 14.8664C20.2467 14.7466 20.2662 14.7147 20.2548 14.7398C20.2488 14.7528 20.2361 14.7777 20.2138 14.81C20.1913 14.8425 20.1627 14.8772 20.1284 14.911L15.9228 10.6316ZM14.3008 13.9528L12.6815 23.4982L18.5969 24.5018L20.2163 14.9563L14.3008 13.9528ZM15.6392 21H10.0142V27H15.6392V21ZM12.9719 24.5018L14.5913 14.9563L8.67578 13.9528L7.05646 23.4982L12.9719 24.5018ZM14.6051 14.8664C14.7647 13.7153 14.6835 12.258 13.7504 10.9917L8.92006 14.5509C8.76087 14.3349 8.6996 14.1324 8.67955 14.0192C8.662 13.9202 8.67966 13.9148 8.66193 14.0426L14.6051 14.8664ZM13.7651 11.0118C12.7855 9.65906 11.3257 9.15341 9.97159 9.15341V15.1534C9.9434 15.1534 9.7711 15.1486 9.53241 15.0404C9.2752 14.9239 9.056 14.7388 8.9054 14.5308L13.7651 11.0118ZM9.97159 9.15341C9.08861 9.15341 8.21293 9.36419 7.40877 9.81871L10.3611 15.0421C10.2945 15.0798 10.2196 15.1101 10.1426 15.1297C10.0666 15.1491 10.0067 15.1534 9.97159 15.1534V9.15341ZM7.38411 9.8328C6.58716 10.2933 5.97346 10.9344 5.52738 11.6629L10.6445 14.7959C10.6378 14.8068 10.614 14.8428 10.5668 14.89C10.5186 14.9381 10.4573 14.9867 10.3858 15.028L7.38411 9.8328ZM5.51819 11.6781C5.06922 12.4212 4.821 13.2232 4.70332 14.0117L10.6376 14.8974C10.662 14.7341 10.6907 14.7194 10.6537 14.7807L5.51819 11.6781ZM4.71271 13.9528L3.09339 23.4982L9.00888 24.5018L10.6282 14.9563L4.71271 13.9528ZM6.05114 21H0.170455V27H6.05114V21ZM40.1447 16.8409L37.1855 16.3477L37.1802 16.3794L37.1756 16.4112L40.1447 16.8409ZM41.6788 7.63636V4.63636H39.1374L38.7196 7.14317L41.6788 7.63636ZM47.5595 7.63636L50.5187 8.12956L51.1009 4.63636H47.5595V7.63636ZM44.8322 24V27H47.3736L47.7914 24.4932L44.8322 24ZM39.2498 24L36.2896 23.5134L35.7164 27H39.2498V24ZM39.7612 20.8892L42.7215 21.3758L43.2946 17.8892H39.7612V20.8892ZM39.5907 20.8892V17.8892H37.7081L36.8893 19.5844L39.5907 20.8892ZM37.3322 23.3395L38.8484 25.9281L38.8541 25.9248L37.3322 23.3395ZM31.1426 23.4247L29.4469 25.8995L29.4469 25.8995L31.1426 23.4247ZM29.5126 21.2514L26.6776 22.2328L26.6776 22.2328L29.5126 21.2514ZM29.3208 18.0767L26.362 17.5815L26.3604 17.5911L26.3589 17.6007L29.3208 18.0767ZM31.068 7.63636V4.63636H28.5283L28.1091 7.14121L31.068 7.63636ZM36.9487 7.63636L39.9079 8.12956L40.4901 4.63636H36.9487V7.63636ZM35.4146 16.8409L32.4554 16.3477L32.4512 16.373L32.4474 16.3984L35.4146 16.8409ZM35.7235 18.7479L33.2747 20.4809L33.2835 20.4933L33.2925 20.5057L35.7235 18.7479ZM38.6532 19.1314L40.0525 21.7851L40.0612 21.7805L40.0699 21.7758L38.6532 19.1314ZM39.6333 18.2365L37.1442 16.562L37.1372 16.5724L39.6333 18.2365ZM43.1039 17.3341L44.638 8.12956L38.7196 7.14317L37.1855 16.3477L43.1039 17.3341ZM41.6788 10.6364H47.5595V4.63636H41.6788V10.6364ZM44.6003 7.14317L41.873 23.5068L47.7914 24.4932L50.5187 8.12956L44.6003 7.14317ZM44.8322 21H39.2498V27H44.8322V21ZM42.2101 24.4866L42.7215 21.3758L36.8009 20.4026L36.2896 23.5134L42.2101 24.4866ZM39.7612 17.8892H39.5907V23.8892H39.7612V17.8892ZM36.8893 19.5844C36.6436 20.0931 36.3019 20.4648 35.8103 20.7542L38.8541 25.9248C40.3654 25.0352 41.5293 23.7734 42.2921 22.194L36.8893 19.5844ZM35.816 20.7508C35.3095 21.0475 34.7303 21.2131 34.0083 21.2131V27.2131C35.7296 27.2131 37.3663 26.7962 38.8484 25.9281L35.816 20.7508ZM34.0083 21.2131C33.3297 21.2131 33.0015 21.0618 32.8383 20.9499L29.4469 25.8995C30.8178 26.8388 32.4001 27.2131 34.0083 27.2131V21.2131ZM32.8383 20.9499C32.6291 20.8066 32.4685 20.6193 32.3476 20.2701L26.6776 22.2328C27.196 23.7301 28.122 24.9917 29.4469 25.8995L32.8383 20.9499ZM32.3476 20.2701C32.2239 19.9129 32.1513 19.3712 32.2828 18.5527L26.3589 17.6007C26.1069 19.1686 26.1621 20.7434 26.6776 22.2328L32.3476 20.2701ZM32.2797 18.5719L34.0269 8.13152L28.1091 7.14121L26.362 17.5815L32.2797 18.5719ZM31.068 10.6364H36.9487V4.63636H31.068V10.6364ZM33.9895 7.14317L32.4554 16.3477L38.3738 17.3341L39.9079 8.12956L33.9895 7.14317ZM32.4474 16.3984C32.2634 17.6322 32.3356 19.1538 33.2747 20.4809L38.1724 17.0149C38.3076 17.2059 38.3512 17.3744 38.3627 17.4451C38.3719 17.5024 38.3553 17.4611 38.3818 17.2834L32.4474 16.3984ZM33.2925 20.5057C34.3525 21.9717 35.9457 22.4403 37.3322 22.4403V16.4403C37.2665 16.4403 37.3705 16.4291 37.5622 16.5117C37.7786 16.6048 37.996 16.7708 38.1546 16.99L33.2925 20.5057ZM37.3322 22.4403C38.2555 22.4403 39.1848 22.2426 40.0525 21.7851L37.254 16.4777C37.2904 16.4585 37.3239 16.4473 37.3468 16.4419C37.3684 16.4369 37.3663 16.4403 37.3322 16.4403V22.4403ZM40.0699 21.7758C40.9123 21.3246 41.6062 20.6855 42.1295 19.9006L37.1372 16.5724C37.1386 16.5704 37.1502 16.5539 37.1737 16.5324C37.1975 16.5107 37.2208 16.4954 37.2366 16.487L40.0699 21.7758ZM42.1225 19.911C42.6736 19.0919 42.9813 18.1856 43.1138 17.2706L37.1756 16.4112C37.1634 16.4959 37.1484 16.5433 37.1414 16.5625C37.1349 16.5804 37.134 16.577 37.1442 16.562L42.1225 19.911ZM64.5703 12.9631V15.9631H67.2012L67.5446 13.3547L64.5703 12.9631ZM59.2862 12.9631L56.2966 12.7139L56.0258 15.9631H59.2862V12.9631ZM58.4766 11.5355L57.1642 14.2332L57.1782 14.24L57.1923 14.2467L58.4766 11.5355ZM55.9943 11.7379L57.4143 14.3806L57.4295 14.3724L57.4446 14.3641L55.9943 11.7379ZM55.1953 12.75L58.1268 13.3873L58.1521 13.271L58.1681 13.1531L55.1953 12.75ZM56.4737 13.6023L55.8854 16.544L55.9078 16.5485L55.9302 16.5526L56.4737 13.6023ZM59.7124 14.1989L60.2558 11.2485L60.2558 11.2485L59.7124 14.1989ZM63.2493 15.8288L61.0601 17.88L61.0696 17.8902L61.0792 17.9003L63.2493 15.8288ZM64.0589 18.929L67.0155 19.4374L67.0185 19.4205L67.0212 19.4036L64.0589 18.929ZM62.5888 21.8054L60.4486 19.7031L60.4486 19.7031L62.5888 21.8054ZM59.5845 23.6591L60.583 26.4881L60.5925 26.4847L59.5845 23.6591ZM49.7834 22.7536L47.9014 25.0898L47.9077 25.0949L49.7834 22.7536ZM48.0362 18.7159V15.7159H45.2343L45.0432 18.5113L48.0362 18.7159ZM53.7464 18.7159L56.7454 18.6359L56.6675 15.7159H53.7464V18.7159ZM54.2791 19.9197L52.417 22.2719L52.4439 22.2932L52.4713 22.3139L54.2791 19.9197ZM55.6641 20.3352L55.7663 17.337L55.7522 17.3365L55.7381 17.3361L55.6641 20.3352ZM57.3047 19.9624L58.8016 22.5622L58.8163 22.5538L58.8309 22.5451L57.3047 19.9624ZM58.093 18.929L61.0649 19.3389L61.0744 19.2699L61.0807 19.2006L58.093 18.929ZM57.7841 18.3963L56.3416 21.0267L56.359 21.0363L56.3766 21.0457L57.7841 18.3963ZM56.5163 18.0341L57.0854 15.0886L57.0692 15.0854L57.053 15.0825L56.5163 18.0341ZM53.7038 17.5227L54.2405 14.5711L54.2348 14.5701L53.7038 17.5227ZM50.1669 15.7756L47.8683 17.7034L47.876 17.7126L50.1669 15.7756ZM49.3999 12.4091L46.4422 11.9065L46.4407 11.9159L49.3999 12.4091ZM50.7209 9.67116L48.548 7.60272L48.5427 7.60823L48.5375 7.61376L50.7209 9.67116ZM53.4908 7.99858L54.4288 10.8481L54.4368 10.8455L54.4447 10.8429L53.4908 7.99858ZM63.0149 8.90412L61.162 11.2635L61.1694 11.2693L61.1768 11.275L63.0149 8.90412ZM64.5703 9.96307H59.2862V15.9631H64.5703V9.96307ZM62.2759 13.2122C62.3464 12.3663 62.2086 11.4053 61.6575 10.513L56.5527 13.666C56.2999 13.2566 56.2829 12.878 56.2966 12.7139L62.2759 13.2122ZM61.6575 10.513C61.1878 9.75247 60.5254 9.18645 59.7608 8.8243L57.1923 14.2467C57.0913 14.1989 56.9723 14.126 56.8525 14.0205C56.7319 13.9142 56.6309 13.7926 56.5527 13.666L61.6575 10.513ZM59.789 8.83781C59.0627 8.48449 58.3053 8.34375 57.5817 8.34375V14.3438C57.5256 14.3438 57.3649 14.3309 57.1642 14.2332L59.789 8.83781ZM57.5817 8.34375C56.5294 8.34375 55.4955 8.58633 54.5441 9.11176L57.4446 14.3641C57.4448 14.364 57.4692 14.3438 57.5817 14.3438V8.34375ZM54.5744 9.09525C53.5122 9.66595 52.4436 10.7167 52.2225 12.3469L58.1681 13.1531C58.1232 13.4845 57.986 13.7963 57.7923 14.0416C57.6145 14.2669 57.4485 14.3622 57.4143 14.3806L54.5744 9.09525ZM52.2638 12.1127C51.9653 13.4858 52.5383 14.6339 53.2338 15.3294L57.4764 11.0868C57.6493 11.2596 57.8875 11.5583 58.0412 11.9989C58.2031 12.4631 58.2224 12.9475 58.1268 13.3873L52.2638 12.1127ZM53.2338 15.3294C53.8013 15.8969 54.4671 16.145 54.7442 16.2426C55.1161 16.3737 55.5121 16.4694 55.8854 16.544L57.0621 10.6605C56.954 10.6389 56.8726 10.6201 56.8142 10.605C56.7541 10.5895 56.7318 10.5814 56.7384 10.5837C56.7401 10.5843 56.8073 10.6075 56.9119 10.663C56.9666 10.6921 57.0445 10.7368 57.1359 10.8006C57.2262 10.8636 57.3466 10.957 57.4764 11.0868L53.2338 15.3294ZM55.9302 16.5526L59.1689 17.1492L60.2558 11.2485L57.0172 10.6519L55.9302 16.5526ZM59.1689 17.1492C60.4692 17.3888 60.9357 17.7473 61.0601 17.88L65.4385 13.7777C64.0856 12.3337 62.1942 11.6056 60.2558 11.2485L59.1689 17.1492ZM61.0792 17.9003C61.0894 17.9109 61.0951 17.9182 61.0979 17.9218C61.1005 17.9255 61.1014 17.9271 61.1015 17.9272C61.1016 17.9273 61.1019 17.928 61.1028 17.93C61.1036 17.9321 61.1057 17.9377 61.1084 17.9479C61.1179 17.9843 61.148 18.1344 61.0967 18.4544L67.0212 19.4036C67.3413 17.4052 66.9482 15.3591 65.4194 13.7574L61.0792 17.9003ZM61.1024 18.4205C61.0135 18.9373 60.8063 19.339 60.4486 19.7031L64.729 23.9077C65.948 22.6667 66.7209 21.1508 67.0155 19.4374L61.1024 18.4205ZM60.4486 19.7031C60.0216 20.1378 59.4264 20.5303 58.5766 20.8335L60.5925 26.4847C62.1717 25.9214 63.5793 25.0781 64.729 23.9077L60.4486 19.7031ZM58.5861 20.8301C57.7416 21.1282 56.7496 21.2983 55.5788 21.2983V27.2983C57.3342 27.2983 59.0127 27.0423 60.583 26.4881L58.5861 20.8301ZM55.5788 21.2983C53.3196 21.2983 52.1852 20.8337 51.659 20.4122L47.9077 25.0949C49.9526 26.733 52.6818 27.2983 55.5788 27.2983V21.2983ZM51.6654 20.4173C51.1634 20.0129 50.9813 19.6221 51.0292 18.9206L45.0432 18.5113C44.8639 21.1336 45.8466 23.4345 47.9014 25.0898L51.6654 20.4173ZM48.0362 21.7159H53.7464V15.7159H48.0362V21.7159ZM50.7475 18.7959C50.7796 19.9975 51.2238 21.3273 52.417 22.2719L56.1412 17.5676C56.3562 17.7378 56.5273 17.9621 56.6337 18.2025C56.7332 18.4273 56.7442 18.5929 56.7454 18.6359L50.7475 18.7959ZM52.4713 22.3139C53.458 23.0589 54.5864 23.3095 55.59 23.3343L55.7381 17.3361C55.5911 17.3325 55.7963 17.3062 56.0869 17.5256L52.4713 22.3139ZM55.5618 23.3335C56.6575 23.3708 57.7756 23.153 58.8016 22.5622L55.8078 17.3625C55.8235 17.3535 55.839 17.3462 55.853 17.3407C55.8669 17.3353 55.8759 17.3331 55.8781 17.3326C55.8831 17.3315 55.8502 17.3398 55.7663 17.337L55.5618 23.3335ZM58.8309 22.5451C59.8243 21.9581 60.8464 20.9229 61.0649 19.3389L55.1212 18.5191C55.1665 18.1905 55.2994 17.8979 55.4682 17.6767C55.623 17.4737 55.7623 17.3891 55.7785 17.3796L58.8309 22.5451ZM61.0807 19.2006C61.1391 18.5587 61.0342 17.8172 60.6269 17.1149C60.2308 16.432 59.6753 16.004 59.1916 15.747L56.3766 21.0457C56.1201 20.9094 55.7298 20.6305 55.4367 20.1252C55.1323 19.6004 55.0683 19.0649 55.1054 18.6574L61.0807 19.2006ZM59.2266 15.7659C58.5447 15.3919 57.6878 15.2049 57.0854 15.0886L55.9473 20.9796C56.2083 21.0301 56.3787 21.0714 56.4779 21.0998C56.5259 21.1135 56.539 21.119 56.5259 21.1141C56.5178 21.111 56.4472 21.0846 56.3416 21.0267L59.2266 15.7659ZM57.053 15.0825L54.2405 14.5711L53.1672 20.4743L55.9797 20.9857L57.053 15.0825ZM54.2348 14.5701C53.0081 14.3495 52.5845 13.9885 52.4578 13.8386L47.876 17.7126C49.2266 19.3098 51.161 20.1136 53.1729 20.4754L54.2348 14.5701ZM52.4655 13.8477C52.4045 13.7751 52.2438 13.5935 52.359 12.9023L46.4407 11.9159C46.1013 13.9519 46.452 16.0147 47.8683 17.7034L52.4655 13.8477ZM52.3575 12.9117C52.4519 12.3559 52.649 11.9995 52.9042 11.7286L48.5375 7.61376C47.4007 8.82014 46.7171 10.289 46.4423 11.9065L52.3575 12.9117ZM52.8938 11.7396C53.1993 11.4186 53.6703 11.0978 54.4288 10.8481L52.5527 5.14901C51.0243 5.65215 49.6487 6.44642 48.548 7.60272L52.8938 11.7396ZM54.4447 10.8429C55.2166 10.584 56.2042 10.4233 57.4538 10.4233V4.4233C55.7063 4.4233 54.0519 4.64613 52.5368 5.1543L54.4447 10.8429ZM57.4538 10.4233C59.5715 10.4233 60.6495 10.861 61.162 11.2635L64.8678 6.5447C62.8661 4.97276 60.2367 4.4233 57.4538 4.4233V10.4233ZM61.1768 11.275C61.5116 11.5346 61.6989 11.7897 61.596 12.5714L67.5446 13.3547C67.8962 10.6847 67.0466 8.23383 64.853 6.5332L61.1768 11.275ZM65.4599 24L62.5007 23.5068L61.9185 27H65.4599V24ZM68.1871 7.63636V4.63636H65.6458L65.228 7.14317L68.1871 7.63636ZM74.0678 7.63636L77.027 8.12956L77.6092 4.63636H74.0678V7.63636ZM71.3406 24V27H73.8819L74.2997 24.4932L71.3406 24ZM69.4549 5.14347L67.2471 7.17463L67.2539 7.18202L67.2608 7.18937L69.4549 5.14347ZM68.9116 3.24716L71.8668 3.76361L71.8684 3.75405L68.9116 3.24716ZM70.0835 1.35085L71.9482 3.70091L71.956 3.69473L71.9637 3.68849L70.0835 1.35085ZM74.1744 1.35085L71.9505 3.36438L71.9573 3.37191L71.9642 3.3794L74.1744 1.35085ZM74.707 3.24716L71.7456 2.76769L71.7441 2.77717L71.7426 2.78666L74.707 3.24716ZM73.5565 5.14347L75.4492 7.47103L75.452 7.46871L73.5565 5.14347ZM68.4191 24.4932L71.1463 8.12956L65.228 7.14317L62.5007 23.5068L68.4191 24.4932ZM68.1871 10.6364H74.0678V4.63636H68.1871V10.6364ZM71.1086 7.14317L68.3814 23.5068L74.2997 24.4932L77.027 8.12956L71.1086 7.14317ZM71.3406 21H65.4599V27H71.3406V21ZM71.3832 2.93182C71.3186 2.93182 71.3522 2.92204 71.4398 2.95784C71.4816 2.97492 71.5245 2.99799 71.5647 3.02597C71.6046 3.05375 71.6326 3.07991 71.6491 3.09757L67.2608 7.18937C68.3822 8.3921 69.8544 8.93182 71.3832 8.93182V2.93182ZM71.6627 3.1123C71.7014 3.15434 71.7849 3.2671 71.8355 3.44358C71.8853 3.61741 71.8709 3.74037 71.8668 3.7636L65.9564 2.73071C65.6728 4.35348 66.1063 5.93457 67.2471 7.17463L71.6627 3.1123ZM71.8684 3.75405C71.8692 3.74991 71.8686 3.75496 71.8645 3.7657C71.8604 3.77656 71.8557 3.78562 71.8524 3.79087C71.8494 3.79583 71.8516 3.79106 71.8643 3.77698C71.8775 3.76254 71.9034 3.73645 71.9482 3.70091L68.2187 -0.999212C67.0508 -0.0724915 66.2205 1.18998 65.9547 2.74027L71.8684 3.75405ZM71.9637 3.68849C72.1153 3.56657 72.1841 3.5625 72.2567 3.5625V-2.4375C70.7385 -2.4375 69.3584 -1.916 68.2032 -0.98679L71.9637 3.68849ZM72.2567 3.5625C72.3291 3.5625 72.2932 3.57364 72.1974 3.53426C72.1511 3.51523 72.102 3.48884 72.055 3.45555C72.0081 3.42243 71.9734 3.38969 71.9505 3.36438L76.3983 -0.662676C75.2756 -1.90267 73.7828 -2.4375 72.2567 -2.4375V3.5625ZM71.9642 3.3794C71.9071 3.31723 71.8238 3.19457 71.7762 3.02507C71.7305 2.86251 71.7467 2.76062 71.7456 2.76769L77.6685 3.72663C77.9236 2.15071 77.5324 0.572929 76.3846 -0.677693L71.9642 3.3794ZM71.7426 2.78666C71.7436 2.7801 71.7465 2.76661 71.7527 2.74958C71.7589 2.73254 71.7655 2.72002 71.7693 2.7137C71.7782 2.69918 71.759 2.73826 71.6609 2.81822L75.452 7.46871C76.5945 6.53735 77.4283 5.27338 77.6715 3.70766L71.7426 2.78666ZM71.6637 2.81591C71.5303 2.92439 71.4685 2.93182 71.3832 2.93182V8.93182C72.903 8.93182 74.29 8.41368 75.4492 7.47103L71.6637 2.81591ZM77.7885 23.2436L76.2127 25.7964L76.2242 25.8035L77.7885 23.2436ZM75.3702 20.282L72.5504 21.3059L72.5522 21.311L75.3702 20.282ZM75.1039 15.8608L78.0617 16.3621L78.0638 16.3499L78.0657 16.3377L75.1039 15.8608ZM76.8297 11.4503L74.3701 9.73266L74.3681 9.73547L76.8297 11.4503ZM80.2388 8.48864L81.5969 11.1636L81.6022 11.1609L80.2388 8.48864ZM89.0066 8.29688L87.5749 10.9332L87.5853 10.9389L87.5957 10.9444L89.0066 8.29688ZM91.3184 10.7472L88.5686 11.9467L88.5735 11.9579L88.5785 11.969L91.3184 10.7472ZM91.6806 14.4545V17.4545H94.2387L94.6429 14.9285L91.6806 14.4545ZM86.226 14.4545L83.2344 14.2302L82.9926 17.4545H86.226V14.4545ZM85.8105 12.4943L83.3925 14.27L83.4015 14.2822L83.4105 14.2943L85.8105 12.4943ZM82.9022 12.2599L84.5757 14.7498L84.5847 14.7437L82.9022 12.2599ZM81.7836 13.5916L79.126 12.1996L79.1198 12.2116L81.7836 13.5916ZM81.1124 15.8182L78.1495 15.3479L78.1495 15.3479L81.1124 15.8182ZM81.0591 18.0554L78.1058 18.5828L78.1095 18.603L78.1134 18.6233L81.0591 18.0554ZM81.7196 19.3871L79.6968 21.6025L79.7219 21.6254L79.7475 21.6478L81.7196 19.3871ZM84.2019 19.5256L85.6242 22.167L85.6331 22.1622L85.6419 22.1574L84.2019 19.5256ZM85.1713 18.6307L82.7095 16.9162L82.7032 16.9254L85.1713 18.6307ZM85.7999 17.1818V14.1818H83.4576L82.8895 16.4542L85.7999 17.1818ZM91.2544 17.1818L94.2037 17.7312L94.8649 14.1818H91.2544V17.1818ZM89.6245 20.9531L92.0053 22.7784L92.0053 22.7784L89.6245 20.9531ZM86.503 23.4247L87.7583 26.1495L87.7583 26.1495L86.503 23.4247ZM82.1777 21.2983C80.7835 21.2983 79.9054 21.0214 79.3529 20.6838L76.2242 25.8035C77.9728 26.872 80.0208 27.2983 82.1777 27.2983V21.2983ZM79.3643 20.6908C78.7843 20.3328 78.4175 19.8809 78.1882 19.2529L72.5522 21.311C73.2462 23.2114 74.4916 24.734 76.2127 25.7964L79.3643 20.6908ZM78.19 19.258C77.9456 18.5848 77.8424 17.656 78.0617 16.3621L72.1461 15.3595C71.7972 17.4179 71.8715 19.4365 72.5504 21.3059L78.19 19.258ZM78.0657 16.3377C78.2714 15.0606 78.6936 14.0231 79.2913 13.1651L74.3681 9.73547C73.2045 11.4058 72.4762 13.3087 72.142 15.3839L78.0657 16.3377ZM79.2894 13.1679C79.8939 12.3022 80.6516 11.6436 81.5969 11.1636L78.8807 5.81364C77.0562 6.73995 75.5411 8.05571 74.3701 9.73266L79.2894 13.1679ZM81.6022 11.1609C82.5177 10.6938 83.6236 10.4233 84.9902 10.4233V4.4233C82.8057 4.4233 80.744 4.86298 78.8754 5.81635L81.6022 11.1609ZM84.9902 10.4233C86.2476 10.4233 87.0588 10.6529 87.5749 10.9332L90.4382 5.66052C88.8095 4.77605 86.9431 4.4233 84.9902 4.4233V10.4233ZM87.5957 10.9444C88.1167 11.222 88.3941 11.5467 88.5686 11.9467L94.0681 9.54761C93.3193 7.83114 92.0556 6.52229 90.4174 5.64933L87.5957 10.9444ZM88.5785 11.969C88.7571 12.3696 88.8765 12.9914 88.7183 13.9806L94.6429 14.9285C94.9392 13.0768 94.8171 11.227 94.0583 9.52531L88.5785 11.969ZM91.6806 11.4545H86.226V17.4545H91.6806V11.4545ZM89.2176 14.6789C89.3093 13.456 89.161 11.9616 88.2105 10.6943L83.4105 14.2943C83.2772 14.1165 83.2408 13.9732 83.2353 13.9473C83.233 13.9363 83.2373 13.9522 83.2397 14.001C83.2421 14.0499 83.2423 14.125 83.2344 14.2302L89.2176 14.6789ZM88.2286 10.7186C87.2482 9.38357 85.7988 8.8125 84.351 8.8125V14.8125C84.3144 14.8125 84.1484 14.8051 83.9256 14.701C83.69 14.5909 83.5079 14.4271 83.3925 14.27L88.2286 10.7186ZM84.351 8.8125C83.218 8.8125 82.1502 9.14577 81.2196 9.77619L84.5847 14.7437C84.5723 14.7521 84.5361 14.7734 84.4799 14.7908C84.4233 14.8082 84.3763 14.8125 84.351 14.8125V8.8125ZM81.2287 9.77009C80.2782 10.4089 79.6048 11.2857 79.1261 12.1996L84.4411 14.9836C84.5873 14.7044 84.6596 14.6934 84.5757 14.7498L81.2287 9.77009ZM79.1198 12.2116C78.6237 13.1691 78.3248 14.2432 78.1495 15.3479L84.0753 16.2885C84.184 15.6034 84.3326 15.1931 84.4473 14.9716L79.1198 12.2116ZM78.1495 15.3479C77.9783 16.4262 77.919 17.5362 78.1058 18.5828L84.0124 17.528C83.9862 17.3814 83.9624 16.9999 84.0753 16.2885L78.1495 15.3479ZM78.1134 18.6233C78.3062 19.6237 78.7488 20.737 79.6968 21.6025L83.7424 17.1716C84.037 17.4406 84.0393 17.6661 84.0049 17.4875L78.1134 18.6233ZM79.7475 21.6478C80.7111 22.4884 81.8698 22.8239 82.9874 22.8239V16.8239C83.0171 16.8239 83.1193 16.8284 83.2642 16.8783C83.4151 16.9303 83.5645 17.0154 83.6917 17.1264L79.7475 21.6478ZM82.9874 22.8239C83.8986 22.8239 84.7958 22.6131 85.6242 22.167L82.7796 16.8842C82.8167 16.8642 82.8605 16.847 82.9057 16.8359C82.9503 16.8249 82.98 16.8239 82.9874 16.8239V22.8239ZM85.6419 22.1574C86.4707 21.7039 87.1325 21.0698 87.6395 20.336L82.7032 16.9254C82.6839 16.9532 82.6786 16.9551 82.6917 16.943C82.698 16.9372 82.7074 16.9292 82.72 16.9201C82.7326 16.911 82.7467 16.9021 82.7618 16.8938L85.6419 22.1574ZM87.6332 20.3452C88.1568 19.5933 88.4978 18.7595 88.7103 17.9094L82.8895 16.4542C82.8179 16.7405 82.7399 16.8726 82.7095 16.9162L87.6332 20.3452ZM85.7999 20.1818H91.2544V14.1818H85.7999V20.1818ZM88.3052 16.6324C88.1131 17.6634 87.7459 18.4727 87.2436 19.1278L92.0053 22.7784C93.1366 21.3028 93.856 19.598 94.2037 17.7312L88.3052 16.6324ZM87.2436 19.1278C86.7346 19.7918 86.0862 20.3137 85.2478 20.6999L87.7583 26.1495C89.4482 25.371 90.8808 24.2451 92.0053 22.7784L87.2436 19.1278ZM85.2478 20.6999C84.4365 21.0737 83.434 21.2983 82.1777 21.2983V27.2983C84.1601 27.2983 86.0412 26.9405 87.7583 26.1495L85.2478 20.6999ZM101.958 23.2436L100.383 25.7964L100.394 25.8035L101.958 23.2436ZM99.5401 20.282L96.7203 21.3059L96.7221 21.311L99.5401 20.282ZM99.2738 15.8608L102.232 16.3621L102.234 16.3499L102.236 16.3377L99.2738 15.8608ZM101 11.4503L98.54 9.73266L98.5381 9.73547L101 11.4503ZM104.409 8.48864L105.767 11.1636L105.772 11.1609L104.409 8.48864ZM113.176 8.29688L111.745 10.9332L111.755 10.9389L111.766 10.9444L113.176 8.29688ZM115.488 10.7472L112.739 11.9467L112.743 11.9579L112.748 11.969L115.488 10.7472ZM115.85 14.4545V17.4545H118.409L118.813 14.9285L115.85 14.4545ZM110.396 14.4545L107.404 14.2302L107.163 17.4545H110.396V14.4545ZM109.98 12.4943L107.562 14.27L107.571 14.2822L107.58 14.2943L109.98 12.4943ZM107.072 12.2599L108.746 14.7498L108.755 14.7437L107.072 12.2599ZM105.953 13.5916L103.296 12.1996L103.29 12.2116L105.953 13.5916ZM105.282 15.8182L102.319 15.3479L102.319 15.3479L105.282 15.8182ZM105.229 18.0554L102.276 18.5828L102.279 18.603L102.283 18.6233L105.229 18.0554ZM105.89 19.3871L103.867 21.6025L103.892 21.6254L103.917 21.6478L105.89 19.3871ZM108.372 19.5256L109.794 22.167L109.803 22.1622L109.812 22.1574L108.372 19.5256ZM109.341 18.6307L106.879 16.9162L106.873 16.9254L109.341 18.6307ZM109.97 17.1818V14.1818H107.627L107.059 16.4542L109.97 17.1818ZM115.424 17.1818L118.374 17.7312L119.035 14.1818H115.424V17.1818ZM113.794 20.9531L116.175 22.7784L116.175 22.7784L113.794 20.9531ZM110.673 23.4247L111.928 26.1495L111.928 26.1495L110.673 23.4247ZM106.348 21.2983C104.953 21.2983 104.075 21.0214 103.523 20.6838L100.394 25.8035C102.143 26.872 104.191 27.2983 106.348 27.2983V21.2983ZM103.534 20.6908C102.954 20.3328 102.587 19.8809 102.358 19.2529L96.7221 21.311C97.4161 23.2114 98.6615 24.734 100.383 25.7964L103.534 20.6908ZM102.36 19.258C102.116 18.5848 102.012 17.656 102.232 16.3621L96.316 15.3595C95.9671 17.4179 96.0415 19.4365 96.7203 21.3059L102.36 19.258ZM102.236 16.3377C102.441 15.0606 102.863 14.0231 103.461 13.1651L98.5381 9.73547C97.3744 11.4058 96.6461 13.3087 96.3119 15.3839L102.236 16.3377ZM103.459 13.1679C104.064 12.3022 104.821 11.6436 105.767 11.1636L103.051 5.81364C101.226 6.73995 99.7111 8.05571 98.54 9.73266L103.459 13.1679ZM105.772 11.1609C106.688 10.6938 107.794 10.4233 109.16 10.4233V4.4233C106.976 4.4233 104.914 4.86298 103.045 5.81635L105.772 11.1609ZM109.16 10.4233C110.418 10.4233 111.229 10.6529 111.745 10.9332L114.608 5.66052C112.979 4.77605 111.113 4.4233 109.16 4.4233V10.4233ZM111.766 10.9444C112.287 11.222 112.564 11.5467 112.739 11.9467L118.238 9.54761C117.489 7.83114 116.225 6.52229 114.587 5.64933L111.766 10.9444ZM112.748 11.969C112.927 12.3696 113.046 12.9914 112.888 13.9806L118.813 14.9285C119.109 13.0768 118.987 11.227 118.228 9.52531L112.748 11.969ZM115.85 11.4545H110.396V17.4545H115.85V11.4545ZM113.388 14.6789C113.479 13.456 113.331 11.9616 112.38 10.6943L107.58 14.2943C107.447 14.1165 107.411 13.9732 107.405 13.9473C107.403 13.9363 107.407 13.9522 107.41 14.001C107.412 14.0499 107.412 14.125 107.404 14.2302L113.388 14.6789ZM112.398 10.7186C111.418 9.38357 109.969 8.8125 108.521 8.8125V14.8125C108.484 14.8125 108.318 14.8051 108.095 14.701C107.86 14.5909 107.678 14.4271 107.562 14.27L112.398 10.7186ZM108.521 8.8125C107.388 8.8125 106.32 9.14577 105.39 9.77619L108.755 14.7437C108.742 14.7521 108.706 14.7734 108.65 14.7908C108.593 14.8082 108.546 14.8125 108.521 14.8125V8.8125ZM105.399 9.77009C104.448 10.4089 103.775 11.2857 103.296 12.1996L108.611 14.9836C108.757 14.7044 108.83 14.6934 108.746 14.7498L105.399 9.77009ZM103.29 12.2116C102.794 13.1691 102.495 14.2432 102.319 15.3479L108.245 16.2885C108.354 15.6034 108.503 15.1931 108.617 14.9716L103.29 12.2116ZM102.319 15.3479C102.148 16.4262 102.089 17.5362 102.276 18.5828L108.182 17.528C108.156 17.3814 108.132 16.9999 108.245 16.2885L102.319 15.3479ZM102.283 18.6233C102.476 19.6237 102.919 20.737 103.867 21.6025L107.912 17.1716C108.207 17.4406 108.209 17.6661 108.175 17.4875L102.283 18.6233ZM103.917 21.6478C104.881 22.4884 106.04 22.8239 107.157 22.8239V16.8239C107.187 16.8239 107.289 16.8284 107.434 16.8783C107.585 16.9303 107.734 17.0154 107.862 17.1264L103.917 21.6478ZM107.157 22.8239C108.069 22.8239 108.966 22.6131 109.794 22.167L106.95 16.8842C106.987 16.8642 107.03 16.847 107.076 16.8359C107.12 16.8249 107.15 16.8239 107.157 16.8239V22.8239ZM109.812 22.1574C110.641 21.7039 111.302 21.0698 111.809 20.336L106.873 16.9254C106.854 16.9532 106.849 16.9551 106.862 16.943C106.868 16.9372 106.877 16.9292 106.89 16.9201C106.903 16.911 106.917 16.9021 106.932 16.8938L109.812 22.1574ZM111.803 20.3452C112.327 19.5933 112.668 18.7595 112.88 17.9094L107.059 16.4542C106.988 16.7405 106.91 16.8726 106.879 16.9162L111.803 20.3452ZM109.97 20.1818H115.424V14.1818H109.97V20.1818ZM112.475 16.6324C112.283 17.6634 111.916 18.4727 111.414 19.1278L116.175 22.7784C117.306 21.3028 118.026 19.598 118.374 17.7312L112.475 16.6324ZM111.414 19.1278C110.904 19.7918 110.256 20.3137 109.418 20.6999L111.928 26.1495C113.618 25.371 115.051 24.2451 116.175 22.7784L111.414 19.1278ZM109.418 20.6999C108.606 21.0737 107.604 21.2983 106.348 21.2983V27.2983C108.33 27.2983 110.211 26.9405 111.928 26.1495L109.418 20.6999ZM126.203 2.18182L129.162 2.67314L129.742 -0.818182H126.203V2.18182ZM122.581 24V27H125.124L125.54 24.4913L122.581 24ZM116.7 24L113.741 23.5087L113.161 27H116.7V24ZM120.322 2.18182V-0.818182H117.779L117.363 1.6905L120.322 2.18182ZM123.243 1.6905L119.621 23.5087L125.54 24.4913L129.162 2.67314L123.243 1.6905ZM122.581 21H116.7V27H122.581V21ZM119.66 24.4913L123.282 2.67314L117.363 1.6905L113.741 23.5087L119.66 24.4913ZM120.322 5.18182H126.203V-0.818182H120.322V5.18182ZM127.42 23.7443L126.141 26.4582L126.157 26.4656L126.173 26.4727L127.42 23.7443ZM125.801 22.1676L123.086 23.4437L123.093 23.4601L123.101 23.4764L125.801 22.1676ZM125.577 19.483L128.534 19.9888L128.536 19.9762L125.577 19.483ZM126.419 17.1925L128.932 18.8304L128.932 18.8304L126.419 17.1925ZM127.953 15.6371L129.61 18.1377L129.61 18.1377L127.953 15.6371ZM130.009 14.7102L130.819 17.5988L130.828 17.5963L130.837 17.5938L130.009 14.7102ZM132.438 14.2841L132.662 17.2757L132.668 17.2753L132.438 14.2841ZM134.686 14.0178L134.139 11.0679L134.139 11.0679L134.686 14.0178ZM135.975 13.581L134.34 11.0656L134.34 11.0656L135.975 13.581ZM136.486 12.8352L139.438 13.3719L139.486 13.1057V12.8352H136.486ZM136.486 12.7926L133.519 12.3476L133.486 12.5689V12.7926H136.486ZM136.145 11.8125L134.271 14.1551L134.285 14.1664L134.299 14.1774L136.145 11.8125ZM133.514 11.8338L131.977 9.25735L131.967 9.26336L131.957 9.26944L133.514 11.8338ZM132.694 12.9631V15.9631H134.944L135.574 13.8031L132.694 12.9631ZM127.282 12.9631L124.357 12.2946L123.519 15.9631H127.282V12.9631ZM128.677 10.2145L126.38 8.28446L126.379 8.28628L128.677 10.2145ZM131.5 8.19034L132.686 10.9461L132.694 10.9426L131.5 8.19034ZM138.787 7.83878L137.887 10.7006L137.898 10.7039L137.908 10.7071L138.787 7.83878ZM140.971 8.97869L139.026 11.2624L139.041 11.2753L139.056 11.288L140.971 8.97869ZM142.196 10.6832L139.373 11.6961L139.379 11.7147L139.386 11.7332L142.196 10.6832ZM142.367 12.7926L139.408 12.2949L139.408 12.2976L142.367 12.7926ZM140.492 24V27H143.032L143.451 24.495L140.492 24ZM134.995 24L132.035 23.5068L131.453 27H134.995V24ZM135.378 21.6989L138.337 22.1921L138.92 18.6989H135.378V21.6989ZM135.25 21.6989V18.6989H133.685L132.79 19.9823L135.25 21.6989ZM133.812 23.1797L132.081 20.7297L132.073 20.7352L132.065 20.7407L133.812 23.1797ZM132.086 24L131.297 21.1057L131.289 21.108L132.086 24ZM133.951 20.2713L135.143 23.024L135.143 23.024L133.951 20.2713ZM135.048 19.4723L137.303 21.4511L137.303 21.4511L135.048 19.4723ZM135.634 18.2045L138.591 18.7114L138.594 18.6896L138.598 18.6677L135.634 18.2045ZM135.847 16.8409L138.811 17.304L139.632 12.0513L134.711 14.0643L135.847 16.8409ZM135.325 17.022L136.105 19.9189L136.141 19.9091L136.177 19.8984L135.325 17.022ZM134.739 17.1712L134.035 14.2549L134.023 14.2578L134.011 14.2607L134.739 17.1712ZM134.1 17.3097L133.547 14.361L133.538 14.3627L133.53 14.3643L134.1 17.3097ZM133.418 17.4375L133.867 20.4036L133.911 20.397L133.955 20.3891L133.418 17.4375ZM132.235 17.7891L133.553 20.4842L133.577 20.4725L133.601 20.4604L132.235 17.7891ZM131.49 18.375L133.854 20.2219L133.868 20.2044L133.881 20.1866L131.49 18.375ZM131.159 19.142L128.193 18.697L128.191 18.7074L128.19 18.7178L131.159 19.142ZM131.468 20.1861L129.436 22.3927L129.466 22.4205L129.497 22.4474L131.468 20.1861ZM130.094 21.2557C129.377 21.2557 128.932 21.1371 128.667 21.0159L126.173 26.4727C127.399 27.0334 128.737 27.2557 130.094 27.2557V21.2557ZM128.699 21.0305C128.55 20.9605 128.528 20.9157 128.5 20.8588L123.101 23.4764C123.756 24.8258 124.813 25.8321 126.141 26.4582L128.699 21.0305ZM128.516 20.8915C128.528 20.9169 128.413 20.6954 128.534 19.9888L122.62 18.9771C122.372 20.4296 122.406 21.9979 123.086 23.4437L128.516 20.8915ZM128.536 19.9762C128.631 19.4085 128.787 19.053 128.932 18.8304L123.905 15.5545C123.226 16.5962 122.822 17.7677 122.618 18.9898L128.536 19.9762ZM128.932 18.8304C129.127 18.5309 129.351 18.3096 129.61 18.1377L126.295 13.1365C125.333 13.7742 124.534 14.5899 123.905 15.5545L128.932 18.8304ZM129.61 18.1377C129.941 17.9184 130.337 17.734 130.819 17.5988L129.199 11.8216C128.161 12.1126 127.186 12.5461 126.295 13.1365L129.61 18.1377ZM130.837 17.5938C131.393 17.434 132 17.3254 132.662 17.2757L132.213 11.2925C131.171 11.3707 130.158 11.5461 129.181 11.8267L130.837 17.5938ZM132.668 17.2753C133.644 17.2002 134.51 17.1013 135.232 16.9676L134.139 11.0679C133.711 11.1473 133.078 11.226 132.208 11.2929L132.668 17.2753ZM135.232 16.9676C135.954 16.8338 136.838 16.5981 137.61 16.0963L134.34 11.0656C134.406 11.0226 134.454 10.999 134.475 10.9894C134.496 10.9798 134.498 10.9801 134.477 10.9873C134.43 11.0031 134.324 11.0337 134.139 11.0679L135.232 16.9676ZM137.61 16.0963C138.535 15.4951 139.222 14.5558 139.438 13.3719L133.535 12.2986C133.578 12.0617 133.675 11.8025 133.842 11.5594C134.006 11.3203 134.192 11.1617 134.34 11.0656L137.61 16.0963ZM139.486 12.8352V12.7926H133.486V12.8352H139.486ZM139.453 13.2376C139.645 11.9545 139.293 10.4636 137.991 9.44755L134.299 14.1774C134.022 13.9611 133.761 13.6329 133.615 13.2135C133.478 12.8186 133.497 12.4992 133.519 12.3476L139.453 13.2376ZM138.019 9.4699C137.024 8.6739 135.873 8.47159 134.952 8.47159V14.4716C135.054 14.4716 134.698 14.4965 134.271 14.1551L138.019 9.4699ZM134.952 8.47159C133.953 8.47159 132.922 8.6934 131.977 9.25735L135.051 14.4103C134.991 14.4461 134.939 14.4639 134.91 14.4713C134.883 14.478 134.893 14.4716 134.952 14.4716V8.47159ZM131.957 9.26944C130.825 9.95658 130.14 11.0035 129.814 12.1231L135.574 13.8031C135.565 13.8315 135.531 13.9319 135.438 14.0604C135.34 14.1944 135.212 14.3123 135.071 14.3982L131.957 9.26944ZM132.694 9.96307H127.282V15.9631H132.694V9.96307ZM130.206 13.6315C130.32 13.1341 130.555 12.6435 130.975 12.1427L126.379 8.28628C125.393 9.4616 124.698 10.8034 124.357 12.2946L130.206 13.6315ZM130.974 12.1445C131.34 11.7093 131.877 11.2943 132.686 10.946L130.315 5.43464C128.78 6.09495 127.435 7.02931 126.38 8.28446L130.974 12.1445ZM132.694 10.9426C133.409 10.6325 134.389 10.4233 135.719 10.4233V4.4233C133.782 4.4233 131.95 4.72544 130.307 5.43808L132.694 10.9426ZM135.719 10.4233C136.655 10.4233 137.362 10.5355 137.887 10.7006L139.687 4.97699C138.451 4.58808 137.113 4.4233 135.719 4.4233V10.4233ZM137.908 10.7071C138.481 10.8826 138.823 11.0894 139.026 11.2624L142.917 6.69496C141.969 5.88788 140.855 5.33472 139.666 4.97044L137.908 10.7071ZM139.056 11.288C139.263 11.4598 139.336 11.5934 139.373 11.6961L145.02 9.67034C144.588 8.46628 143.844 7.4635 142.886 6.66942L139.056 11.288ZM139.386 11.7332C139.422 11.8297 139.459 11.9928 139.408 12.2949L145.325 13.2903C145.53 12.0726 145.454 10.8294 145.007 9.63325L139.386 11.7332ZM139.408 12.2976L137.533 23.505L143.451 24.495L145.326 13.2876L139.408 12.2976ZM140.492 21H134.995V27H140.492V21ZM137.954 24.4932L138.337 22.1921L132.419 21.2057L132.035 23.5068L137.954 24.4932ZM135.378 18.6989H135.25V24.6989H135.378V18.6989ZM132.79 19.9823C132.535 20.3481 132.293 20.58 132.081 20.7297L135.543 25.6297C136.397 25.0266 137.114 24.2712 137.711 23.4154L132.79 19.9823ZM132.065 20.7407C131.83 20.9093 131.579 21.0288 131.297 21.1057L132.876 26.8943C133.844 26.6303 134.743 26.2029 135.559 25.6187L132.065 20.7407ZM131.289 21.108C130.957 21.1995 130.563 21.2557 130.094 21.2557V27.2557C131.045 27.2557 131.98 27.1414 132.884 26.892L131.289 21.108ZM132.651 23.5483C133.524 23.5483 134.362 23.3627 135.143 23.024L132.758 17.5186C132.687 17.5492 132.659 17.5483 132.651 17.5483V23.5483ZM135.143 23.024C135.975 22.6636 136.704 22.1334 137.303 21.4511L132.793 17.4935C132.788 17.4998 132.784 17.5034 132.782 17.5051C132.78 17.5067 132.779 17.5075 132.779 17.5079C132.778 17.5082 132.777 17.5091 132.774 17.5106C132.772 17.5121 132.766 17.5149 132.758 17.5186L135.143 23.024ZM137.303 21.4511C138.006 20.6497 138.421 19.7041 138.591 18.7114L132.677 17.6977C132.675 17.708 132.679 17.6827 132.7 17.6357C132.723 17.5872 132.755 17.5371 132.793 17.4935L137.303 21.4511ZM138.598 18.6677L138.811 17.304L132.883 16.3778L132.67 17.7414L138.598 18.6677ZM134.711 14.0643C134.663 14.0841 134.585 14.1123 134.473 14.1456L136.177 19.8984C136.448 19.8181 136.719 19.7256 136.983 19.6175L134.711 14.0643ZM134.545 14.1252C134.388 14.1674 134.218 14.2107 134.035 14.2549L135.443 20.0874C135.672 20.0322 135.892 19.9761 136.105 19.9189L134.545 14.1252ZM134.011 14.2607C133.877 14.2943 133.723 14.3281 133.547 14.361L134.653 20.2583C134.931 20.206 135.203 20.1475 135.467 20.0816L134.011 14.2607ZM133.53 14.3643C133.321 14.4047 133.105 14.4452 132.881 14.4859L133.955 20.3891C134.199 20.3446 134.438 20.2999 134.67 20.255L133.53 14.3643ZM132.969 14.4714C132.277 14.5762 131.553 14.7689 130.87 15.1178L133.601 20.4604C133.575 20.4733 133.58 20.4679 133.626 20.4543C133.672 20.4406 133.75 20.4215 133.867 20.4036L132.969 14.4714ZM130.918 15.0939C130.264 15.4137 129.613 15.8839 129.098 16.5634L133.881 20.1866C133.721 20.3974 133.568 20.4769 133.553 20.4842L130.918 15.0939ZM129.126 16.5281C128.631 17.1612 128.312 17.8994 128.193 18.697L134.126 19.5871C134.092 19.8165 133.993 20.0434 133.854 20.2219L129.126 16.5281ZM128.19 18.7178C128.023 19.8863 128.268 21.3166 129.436 22.3927L133.501 17.9794C133.76 18.2181 133.961 18.5356 134.065 18.8874C134.162 19.2154 134.144 19.465 134.129 19.5663L128.19 18.7178ZM129.497 22.4474C130.501 23.323 131.698 23.5483 132.651 23.5483V17.5483C132.581 17.5483 132.989 17.5321 133.44 17.9248L129.497 22.4474ZM160.049 12.9631V15.9631H162.68L163.023 13.3547L160.049 12.9631ZM154.765 12.9631L151.775 12.7139L151.504 15.9631H154.765V12.9631ZM153.955 11.5355L152.643 14.2332L152.657 14.24L152.671 14.2467L153.955 11.5355ZM151.473 11.7379L152.893 14.3806L152.908 14.3724L152.923 14.3641L151.473 11.7379ZM150.674 12.75L153.605 13.3873L153.631 13.271L153.647 13.1531L150.674 12.75ZM151.952 13.6023L151.364 16.544L151.386 16.5485L151.409 16.5526L151.952 13.6023ZM155.191 14.1989L155.734 11.2485L155.734 11.2485L155.191 14.1989ZM158.728 15.8288L156.539 17.88L156.548 17.8902L156.558 17.9003L158.728 15.8288ZM159.537 18.929L162.494 19.4374L162.497 19.4205L162.5 19.4036L159.537 18.929ZM158.067 21.8054L155.927 19.7031L155.927 19.7031L158.067 21.8054ZM155.063 23.6591L156.061 26.4881L156.071 26.4847L155.063 23.6591ZM145.262 22.7536L143.38 25.0898L143.386 25.0949L145.262 22.7536ZM143.515 18.7159V15.7159H140.713L140.522 18.5113L143.515 18.7159ZM149.225 18.7159L152.224 18.6359L152.146 15.7159H149.225V18.7159ZM149.758 19.9197L147.896 22.2719L147.922 22.2932L147.95 22.3139L149.758 19.9197ZM151.143 20.3352L151.245 17.337L151.231 17.3365L151.217 17.3361L151.143 20.3352ZM152.783 19.9624L154.28 22.5622L154.295 22.5538L154.309 22.5451L152.783 19.9624ZM153.572 18.929L156.543 19.3389L156.553 19.2699L156.559 19.2006L153.572 18.929ZM153.263 18.3963L151.82 21.0267L151.838 21.0363L151.855 21.0457L153.263 18.3963ZM151.995 18.0341L152.564 15.0886L152.548 15.0854L152.532 15.0825L151.995 18.0341ZM149.182 17.5227L149.719 14.5711L149.713 14.5701L149.182 17.5227ZM145.645 15.7756L143.347 17.7034L143.355 17.7126L145.645 15.7756ZM144.878 12.4091L141.921 11.9065L141.919 11.9159L144.878 12.4091ZM146.199 9.67116L144.026 7.60272L144.021 7.60823L144.016 7.61376L146.199 9.67116ZM148.969 7.99858L149.907 10.8481L149.915 10.8455L149.923 10.8429L148.969 7.99858ZM158.493 8.90412L156.641 11.2635L156.648 11.2693L156.655 11.275L158.493 8.90412ZM160.049 9.96307H154.765V15.9631H160.049V9.96307ZM157.754 13.2122C157.825 12.3663 157.687 11.4053 157.136 10.513L152.031 13.666C151.778 13.2566 151.761 12.878 151.775 12.7139L157.754 13.2122ZM157.136 10.513C156.666 9.75247 156.004 9.18645 155.239 8.8243L152.671 14.2467C152.57 14.1989 152.451 14.126 152.331 14.0205C152.21 13.9142 152.109 13.7926 152.031 13.666L157.136 10.513ZM155.267 8.83781C154.541 8.48449 153.784 8.34375 153.06 8.34375V14.3438C153.004 14.3438 152.843 14.3309 152.643 14.2332L155.267 8.83781ZM153.06 8.34375C152.008 8.34375 150.974 8.58633 150.023 9.11176L152.923 14.3641C152.923 14.364 152.948 14.3438 153.06 14.3438V8.34375ZM150.053 9.09525C148.991 9.66595 147.922 10.7167 147.701 12.3469L153.647 13.1531C153.602 13.4845 153.464 13.7963 153.271 14.0416C153.093 14.2669 152.927 14.3622 152.893 14.3806L150.053 9.09525ZM147.742 12.1127C147.444 13.4858 148.017 14.6339 148.712 15.3294L152.955 11.0868C153.128 11.2596 153.366 11.5583 153.52 11.9989C153.682 12.4631 153.701 12.9475 153.605 13.3873L147.742 12.1127ZM148.712 15.3294C149.28 15.8969 149.946 16.145 150.223 16.2426C150.595 16.3737 150.991 16.4694 151.364 16.544L152.541 10.6605C152.433 10.6389 152.351 10.6201 152.293 10.605C152.233 10.5895 152.21 10.5814 152.217 10.5837C152.219 10.5843 152.286 10.6075 152.39 10.663C152.445 10.6921 152.523 10.7368 152.614 10.8006C152.705 10.8636 152.825 10.957 152.955 11.0868L148.712 15.3294ZM151.409 16.5526L154.647 17.1492L155.734 11.2485L152.496 10.6519L151.409 16.5526ZM154.647 17.1492C155.948 17.3888 156.414 17.7473 156.539 17.88L160.917 13.7777C159.564 12.3337 157.673 11.6056 155.734 11.2485L154.647 17.1492ZM156.558 17.9003C156.568 17.9109 156.574 17.9182 156.576 17.9218C156.579 17.9255 156.58 17.9271 156.58 17.9272C156.58 17.9273 156.58 17.928 156.581 17.93C156.582 17.9321 156.584 17.9377 156.587 17.9479C156.596 17.9843 156.627 18.1344 156.575 18.4544L162.5 19.4036C162.82 17.4052 162.427 15.3591 160.898 13.7574L156.558 17.9003ZM156.581 18.4205C156.492 18.9373 156.285 19.339 155.927 19.7031L160.207 23.9077C161.426 22.6667 162.199 21.1508 162.494 19.4374L156.581 18.4205ZM155.927 19.7031C155.5 20.1378 154.905 20.5303 154.055 20.8335L156.071 26.4847C157.65 25.9214 159.058 25.0781 160.207 23.9077L155.927 19.7031ZM154.065 20.8301C153.22 21.1282 152.228 21.2983 151.057 21.2983V27.2983C152.813 27.2983 154.491 27.0423 156.061 26.4881L154.065 20.8301ZM151.057 21.2983C148.798 21.2983 147.664 20.8337 147.138 20.4122L143.386 25.0949C145.431 26.733 148.16 27.2983 151.057 27.2983V21.2983ZM147.144 20.4173C146.642 20.0129 146.46 19.6221 146.508 18.9206L140.522 18.5113C140.342 21.1336 141.325 23.4345 143.38 25.0898L147.144 20.4173ZM143.515 21.7159H149.225V15.7159H143.515V21.7159ZM146.226 18.7959C146.258 19.9975 146.702 21.3273 147.896 22.2719L151.62 17.5676C151.835 17.7378 152.006 17.9621 152.112 18.2025C152.212 18.4273 152.223 18.5929 152.224 18.6359L146.226 18.7959ZM147.95 22.3139C148.936 23.0589 150.065 23.3095 151.069 23.3343L151.217 17.3361C151.07 17.3325 151.275 17.3062 151.565 17.5256L147.95 22.3139ZM151.04 23.3335C152.136 23.3708 153.254 23.153 154.28 22.5622L151.286 17.3625C151.302 17.3535 151.318 17.3462 151.332 17.3407C151.345 17.3353 151.354 17.3331 151.357 17.3326C151.362 17.3315 151.329 17.3398 151.245 17.337L151.04 23.3335ZM154.309 22.5451C155.303 21.9581 156.325 20.9229 156.543 19.3389L150.6 18.5191C150.645 18.1905 150.778 17.8979 150.947 17.6767C151.102 17.4737 151.241 17.3891 151.257 17.3796L154.309 22.5451ZM156.559 19.2006C156.618 18.5587 156.513 17.8172 156.105 17.1149C155.709 16.432 155.154 16.004 154.67 15.747L151.855 21.0457C151.599 20.9094 151.208 20.6305 150.915 20.1252C150.611 19.6004 150.547 19.0649 150.584 18.6574L156.559 19.2006ZM154.705 15.7659C154.023 15.3919 153.166 15.2049 152.564 15.0886L151.426 20.9796C151.687 21.0301 151.857 21.0714 151.956 21.0998C152.004 21.1135 152.018 21.119 152.004 21.1141C151.996 21.111 151.926 21.0846 151.82 21.0267L154.705 15.7659ZM152.532 15.0825L149.719 14.5711L148.646 20.4743L151.458 20.9857L152.532 15.0825ZM149.713 14.5701C148.487 14.3495 148.063 13.9885 147.936 13.8386L143.355 17.7126C144.705 19.3098 146.639 20.1136 148.651 20.4754L149.713 14.5701ZM147.944 13.8477C147.883 13.7751 147.722 13.5935 147.838 12.9023L141.919 11.9159C141.58 13.9519 141.931 16.0147 143.347 17.7034L147.944 13.8477ZM147.836 12.9117C147.93 12.3559 148.127 11.9995 148.383 11.7286L144.016 7.61376C142.879 8.82014 142.196 10.289 141.921 11.9065L147.836 12.9117ZM148.372 11.7396C148.678 11.4186 149.149 11.0978 149.907 10.8481L148.031 5.14901C146.503 5.65215 145.127 6.44642 144.026 7.60272L148.372 11.7396ZM149.923 10.8429C150.695 10.584 151.683 10.4233 152.932 10.4233V4.4233C151.185 4.4233 149.53 4.64613 148.015 5.1543L149.923 10.8429ZM152.932 10.4233C155.05 10.4233 156.128 10.861 156.641 11.2635L160.346 6.5447C158.345 4.97276 155.715 4.4233 152.932 4.4233V10.4233ZM156.655 11.275C156.99 11.5346 157.177 11.7897 157.075 12.5714L163.023 13.3547C163.375 10.6847 162.525 8.23383 160.332 6.5332L156.655 11.275ZM177.686 12.9631V15.9631H180.316L180.66 13.3547L177.686 12.9631ZM172.401 12.9631L169.412 12.7139L169.141 15.9631H172.401V12.9631ZM171.592 11.5355L170.279 14.2332L170.293 14.24L170.308 14.2467L171.592 11.5355ZM169.11 11.7379L170.529 14.3806L170.545 14.3724L170.56 14.3641L169.11 11.7379ZM168.311 12.75L171.242 13.3873L171.267 13.271L171.283 13.1531L168.311 12.75ZM169.589 13.6023L169.001 16.544L169.023 16.5485L169.045 16.5526L169.589 13.6023ZM172.828 14.1989L173.371 11.2485L173.371 11.2485L172.828 14.1989ZM176.365 15.8288L174.175 17.88L174.185 17.8902L174.194 17.9003L176.365 15.8288ZM177.174 18.929L180.131 19.4374L180.134 19.4205L180.136 19.4036L177.174 18.929ZM175.704 21.8054L173.564 19.7031L173.564 19.7031L175.704 21.8054ZM172.7 23.6591L173.698 26.4881L173.708 26.4847L172.7 23.6591ZM162.899 22.7536L161.017 25.0898L161.023 25.0949L162.899 22.7536ZM161.151 18.7159V15.7159H158.35L158.158 18.5113L161.151 18.7159ZM166.862 18.7159L169.861 18.6359L169.783 15.7159H166.862V18.7159ZM167.394 19.9197L165.532 22.2719L165.559 22.2932L165.587 22.3139L167.394 19.9197ZM168.779 20.3352L168.882 17.337L168.867 17.3365L168.853 17.3361L168.779 20.3352ZM170.42 19.9624L171.917 22.5622L171.932 22.5538L171.946 22.5451L170.42 19.9624ZM171.208 18.929L174.18 19.3389L174.19 19.2699L174.196 19.2006L171.208 18.929ZM170.899 18.3963L169.457 21.0267L169.474 21.0363L169.492 21.0457L170.899 18.3963ZM169.632 18.0341L170.201 15.0886L170.184 15.0854L170.168 15.0825L169.632 18.0341ZM166.819 17.5227L167.356 14.5711L167.35 14.5701L166.819 17.5227ZM163.282 15.7756L160.984 17.7034L160.991 17.7126L163.282 15.7756ZM162.515 12.4091L159.557 11.9065L159.556 11.9159L162.515 12.4091ZM163.836 9.67116L161.663 7.60272L161.658 7.60823L161.653 7.61376L163.836 9.67116ZM166.606 7.99858L167.544 10.8481L167.552 10.8455L167.56 10.8429L166.606 7.99858ZM176.13 8.90412L174.277 11.2635L174.285 11.2693L174.292 11.275L176.13 8.90412ZM177.686 9.96307H172.401V15.9631H177.686V9.96307ZM175.391 13.2122C175.462 12.3663 175.324 11.4053 174.773 10.513L169.668 13.666C169.415 13.2566 169.398 12.878 169.412 12.7139L175.391 13.2122ZM174.773 10.513C174.303 9.75247 173.641 9.18645 172.876 8.8243L170.308 14.2467C170.207 14.1989 170.087 14.126 169.968 14.0205C169.847 13.9142 169.746 13.7926 169.668 13.666L174.773 10.513ZM172.904 8.83781C172.178 8.48449 171.421 8.34375 170.697 8.34375V14.3438C170.641 14.3438 170.48 14.3309 170.279 14.2332L172.904 8.83781ZM170.697 8.34375C169.645 8.34375 168.611 8.58633 167.659 9.11176L170.56 14.3641C170.56 14.364 170.584 14.3438 170.697 14.3438V8.34375ZM167.69 9.09525C166.627 9.66595 165.559 10.7167 165.338 12.3469L171.283 13.1531C171.238 13.4845 171.101 13.7963 170.908 14.0416C170.73 14.2669 170.564 14.3622 170.529 14.3806L167.69 9.09525ZM165.379 12.1127C165.081 13.4858 165.654 14.6339 166.349 15.3294L170.592 11.0868C170.764 11.2596 171.003 11.5583 171.156 11.9989C171.318 12.4631 171.338 12.9475 171.242 13.3873L165.379 12.1127ZM166.349 15.3294C166.917 15.8969 167.582 16.145 167.859 16.2426C168.231 16.3737 168.627 16.4694 169.001 16.544L170.177 10.6605C170.069 10.6389 169.988 10.6201 169.929 10.605C169.869 10.5895 169.847 10.5814 169.854 10.5837C169.855 10.5843 169.923 10.6075 170.027 10.663C170.082 10.6921 170.16 10.7368 170.251 10.8006C170.341 10.8636 170.462 10.957 170.592 11.0868L166.349 15.3294ZM169.045 16.5526L172.284 17.1492L173.371 11.2485L170.132 10.6519L169.045 16.5526ZM172.284 17.1492C173.584 17.3888 174.051 17.7473 174.175 17.88L178.554 13.7777C177.201 12.3337 175.309 11.6056 173.371 11.2485L172.284 17.1492ZM174.194 17.9003C174.205 17.9109 174.21 17.9182 174.213 17.9218C174.216 17.9255 174.217 17.9271 174.217 17.9272C174.217 17.9273 174.217 17.928 174.218 17.93C174.219 17.9321 174.221 17.9377 174.224 17.9479C174.233 17.9843 174.263 18.1344 174.212 18.4544L180.136 19.4036C180.457 17.4052 180.063 15.3591 178.535 13.7574L174.194 17.9003ZM174.218 18.4205C174.129 18.9373 173.922 19.339 173.564 19.7031L177.844 23.9077C179.063 22.6667 179.836 21.1508 180.131 19.4374L174.218 18.4205ZM173.564 19.7031C173.137 20.1378 172.542 20.5303 171.692 20.8335L173.708 26.4847C175.287 25.9214 176.694 25.0781 177.844 23.9077L173.564 19.7031ZM171.701 20.8301C170.857 21.1282 169.865 21.2983 168.694 21.2983V27.2983C170.449 27.2983 172.128 27.0423 173.698 26.4881L171.701 20.8301ZM168.694 21.2983C166.435 21.2983 165.3 20.8337 164.774 20.4122L161.023 25.0949C163.068 26.733 165.797 27.2983 168.694 27.2983V21.2983ZM164.781 20.4173C164.279 20.0129 164.096 19.6221 164.144 18.9206L158.158 18.5113C157.979 21.1336 158.962 23.4345 161.017 25.0898L164.781 20.4173ZM161.151 21.7159H166.862V15.7159H161.151V21.7159ZM163.863 18.7959C163.895 19.9975 164.339 21.3273 165.532 22.2719L169.256 17.5676C169.471 17.7378 169.643 17.9621 169.749 18.2025C169.848 18.4273 169.859 18.5929 169.861 18.6359L163.863 18.7959ZM165.587 22.3139C166.573 23.0589 167.702 23.3095 168.705 23.3343L168.853 17.3361C168.706 17.3325 168.912 17.3062 169.202 17.5256L165.587 22.3139ZM168.677 23.3335C169.773 23.3708 170.891 23.153 171.917 22.5622L168.923 17.3625C168.939 17.3535 168.954 17.3462 168.968 17.3407C168.982 17.3353 168.991 17.3331 168.993 17.3326C168.998 17.3315 168.965 17.3398 168.882 17.337L168.677 23.3335ZM171.946 22.5451C172.94 21.9581 173.962 20.9229 174.18 19.3389L168.236 18.5191C168.282 18.1905 168.415 17.8979 168.583 17.6767C168.738 17.4737 168.878 17.3891 168.894 17.3796L171.946 22.5451ZM174.196 19.2006C174.254 18.5587 174.149 17.8172 173.742 17.1149C173.346 16.432 172.791 16.004 172.307 15.747L169.492 21.0457C169.235 20.9094 168.845 20.6305 168.552 20.1252C168.248 19.6004 168.184 19.0649 168.221 18.6574L174.196 19.2006ZM172.342 15.7659C171.66 15.3919 170.803 15.2049 170.201 15.0886L169.063 20.9796C169.324 21.0301 169.494 21.0714 169.593 21.0998C169.641 21.1135 169.654 21.119 169.641 21.1141C169.633 21.111 169.562 21.0846 169.457 21.0267L172.342 15.7659ZM170.168 15.0825L167.356 14.5711L166.282 20.4743L169.095 20.9857L170.168 15.0825ZM167.35 14.5701C166.123 14.3495 165.7 13.9885 165.573 13.8386L160.991 17.7126C162.342 19.3098 164.276 20.1136 166.288 20.4754L167.35 14.5701ZM165.581 13.8477C165.52 13.7751 165.359 13.5935 165.474 12.9023L159.556 11.9159C159.217 13.9519 159.567 16.0147 160.984 17.7034L165.581 13.8477ZM165.473 12.9117C165.567 12.3559 165.764 11.9995 166.019 11.7286L161.653 7.61376C160.516 8.82014 159.832 10.289 159.557 11.9065L165.473 12.9117ZM166.009 11.7396C166.315 11.4186 166.786 11.0978 167.544 10.8481L165.668 5.14901C164.14 5.65215 162.764 6.44642 161.663 7.60272L166.009 11.7396ZM167.56 10.8429C168.332 10.584 169.319 10.4233 170.569 10.4233V4.4233C168.822 4.4233 167.167 4.64613 165.652 5.1543L167.56 10.8429ZM170.569 10.4233C172.687 10.4233 173.765 10.861 174.277 11.2635L177.983 6.5447C175.981 4.97276 173.352 4.4233 170.569 4.4233V10.4233ZM174.292 11.275C174.627 11.5346 174.814 11.7897 174.711 12.5714L180.66 13.3547C181.011 10.6847 180.162 8.23383 177.968 6.5332L174.292 11.275Z" fill="white"/>
</svg>
