<svg width="250" height="250" viewBox="0 0 405 405" fill="none" xmlns="http://www.w3.org/2000/svg">
	<path d="M401.817 43.812L360.201 2.19699C357.271 -0.732005 352.523 -0.732005 349.594 2.19699L294.44 57.351C292.02 59.771 291.606 63.432 293.185 66.284L225.683 133.787C198.219 109.688 156.257 110.722 130.058 136.921C126.549 140.43 123.414 144.306 120.742 148.441C118.161 152.433 115.971 156.744 114.225 161.266C109.409 173.814 97.092 182.547 83.578 182.995C61.585 183.727 40.901 192.703 25.336 208.268C8.99902 224.605 0.00201949 246.327 0.00201949 269.43C-0.00598051 292.53 8.99102 314.253 25.335 330.597L73.419 378.68C89.757 395.017 111.479 404.015 134.584 404.015C157.688 404.015 179.411 395.017 195.749 378.68C203.641 370.788 209.84 361.623 214.178 351.432C218.358 341.587 220.66 331.16 221.022 320.437C221.47 306.923 230.203 294.607 242.751 289.791C251.903 286.277 260.092 280.947 267.088 273.95C280.298 260.741 287.582 243.165 287.6 224.449C287.592 207.294 281.447 191.095 270.231 178.333L337.734 110.83C338.859 111.452 340.108 111.769 341.359 111.769C343.278 111.769 345.198 111.037 346.663 109.572L401.817 54.418C404.745 51.49 404.745 46.74 401.817 43.812ZM201.099 226.253C198.774 221.19 195.548 216.553 191.506 212.511C187.463 208.469 182.827 205.243 177.764 202.919L303.582 77.1L326.917 100.435L201.099 226.253ZM272.6 224.447C272.586 239.151 266.863 252.965 256.482 263.345C250.981 268.846 244.552 273.033 237.376 275.788C218.99 282.846 206.687 300.176 206.03 319.936C205.732 328.805 203.828 337.429 200.375 345.563C196.795 353.972 191.67 361.546 185.143 368.073C171.639 381.577 153.683 389.014 134.585 389.014C115.486 389.014 97.531 381.577 84.027 368.073L35.943 319.99C22.433 306.48 14.996 288.525 15.003 269.431C15.003 250.332 22.44 232.377 35.943 218.873C48.807 206.009 65.901 198.591 84.077 197.986C103.841 197.329 121.172 185.025 128.224 166.652C129.595 163.1 131.315 159.713 133.337 156.584C135.438 153.336 137.902 150.289 140.665 147.526C151.054 137.137 164.865 131.416 179.556 131.416C192.702 131.416 205.135 136.01 215.051 144.417L158.272 201.196C156.263 203.206 155.562 206.178 156.461 208.874C157.361 211.57 159.708 213.525 162.522 213.925C169.525 214.919 175.88 218.097 180.899 223.116C185.92 228.136 189.098 234.491 190.091 241.494C190.49 244.308 192.445 246.654 195.142 247.554C195.92 247.814 196.721 247.94 197.516 247.94C199.474 247.94 201.391 247.173 202.821 245.743L259.599 188.965C268 198.876 272.594 211.307 272.6 224.447ZM341.359 93.662L310.35 62.654L354.898 18.106L385.907 49.115L341.359 93.662Z" fill="#ffffff" />
	<path d="M110.823 231.39C93.784 248.429 93.784 276.154 110.823 293.193C119.344 301.713 130.534 305.973 141.725 305.973C152.916 305.973 164.107 301.713 172.627 293.193C189.666 276.154 189.666 248.429 172.627 231.39C155.586 214.351 127.864 214.351 110.823 231.39ZM162.02 282.587C150.831 293.777 132.62 293.777 121.43 282.587C110.239 271.396 110.239 253.188 121.43 241.997C127.025 236.402 134.375 233.604 141.725 233.604C149.075 233.604 156.425 236.402 162.02 241.997C173.211 253.187 173.211 271.396 162.02 282.587Z" fill="#ffffff" />
	<path d="M73.773 289.939C70.843 287.01 66.095 287.01 63.166 289.939C60.237 292.868 60.237 297.617 63.166 300.545L103.472 340.85C104.937 342.314 106.857 343.047 108.776 343.047C110.695 343.047 112.615 342.315 114.08 340.85C117.009 337.921 117.009 333.172 114.08 330.244L73.773 289.939Z" fill="#ffffff" />
</svg>
