<svg width="100" height="100" viewBox="0 0 100 100" fill="none" xmlns="http://www.w3.org/2000/svg">
	<path d="M90.2637 33.047C88.0727 27.8177 84.8852 23.0647 80.8789 19.0528C76.8846 15.034 72.1399 11.8387 66.9141 9.64853C61.5607 7.39395 55.8088 6.23826 50 6.25009H49.8047C43.8965 6.27939 38.1836 7.45126 32.8027 9.75595C27.6218 11.9686 22.9216 15.1695 18.9649 19.1798C14.9974 23.1826 11.8464 27.919 9.68751 33.1251C7.44645 38.5388 6.31089 44.3461 6.34767 50.2052C6.37696 56.9825 7.99806 63.711 11.0254 69.7267V84.5704C11.0254 87.0509 13.0371 89.0626 15.5078 89.0626H30.332C36.3757 92.1122 43.045 93.7169 49.8145 93.7501H50.0195C55.8594 93.7501 61.5137 92.6173 66.8457 90.4005C72.0451 88.2364 76.7721 85.0784 80.7617 81.1036C84.7852 77.1095 87.9492 72.4415 90.166 67.2364C92.4609 61.8458 93.6328 56.1134 93.6621 50.1954C93.6816 44.2481 92.5293 38.4767 90.2637 33.047ZM30.5078 54.6876C27.9297 54.6876 25.8301 52.588 25.8301 50.0001C25.8301 47.4122 27.9297 45.3126 30.5078 45.3126C33.0859 45.3126 35.1856 47.4122 35.1856 50.0001C35.1856 52.588 33.0957 54.6876 30.5078 54.6876ZM50 54.6876C47.4219 54.6876 45.3223 52.588 45.3223 50.0001C45.3223 47.4122 47.4219 45.3126 50 45.3126C52.5781 45.3126 54.6777 47.4122 54.6777 50.0001C54.6777 52.588 52.5781 54.6876 50 54.6876ZM69.4922 54.6876C66.9141 54.6876 64.8145 52.588 64.8145 50.0001C64.8145 47.4122 66.9141 45.3126 69.4922 45.3126C72.0703 45.3126 74.1699 47.4122 74.1699 50.0001C74.1699 52.588 72.0703 54.6876 69.4922 54.6876Z" fill="#0084FF" />
</svg>
